<svg width="320" height="630" viewBox="0 0 320 630" fill="none" xmlns="http://www.w3.org/2000/svg">
<g opacity="0.2" clip-path="url(#clip0)">
<path d="M-90.1268 394.27C-90.0674 394.189 -90.0674 394.189 -90.0674 394.189L-14.5893 373.082C-14.4494 373.061 -14.4494 373.061 -14.369 373.12C-14.2885 373.179 -14.2674 373.319 -14.2674 373.319L-26.8198 430.919C-26.8792 430.999 -26.8792 430.999 -26.9385 431.08C-26.9979 431.16 -27.0784 431.101 -27.1588 431.041L-90.1651 394.49C-90.2455 394.431 -90.326 394.371 -90.2666 394.291C-90.1861 394.35 -90.1268 394.27 -90.1268 394.27ZM-14.7846 373.683L-89.3049 394.504L-27.0823 430.601L-14.7846 373.683Z" fill="#C4C4C4"/>
<path d="M-27.1205 430.821C-27.0611 430.74 -26.9213 430.719 -26.8408 430.779L74.1937 473.394C74.2742 473.454 74.2742 473.454 74.3547 473.513C74.4351 473.572 74.3758 473.653 74.3164 473.733L27.0957 574.104C27.0363 574.184 26.9769 574.264 26.8965 574.205C26.7566 574.226 26.6762 574.167 26.6551 574.027L-27.1588 431.041C-27.2392 430.982 -27.1798 430.901 -27.1205 430.821ZM73.8164 473.737L-26.5361 431.376L26.9098 573.345L73.8164 473.737Z" fill="#C4C4C4"/>
<path d="M-93.8002 485.141C-93.7408 485.061 -93.7408 485.061 -93.8002 485.141L-27.1207 430.821C-27.0614 430.741 -26.9809 430.8 -26.9215 430.72C-26.8411 430.779 -26.8411 430.779 -26.7606 430.838L27.0533 573.824C27.0744 573.964 27.015 574.044 26.9556 574.125C26.8962 574.205 26.7564 574.226 26.6759 574.167L-93.8174 485.502C-93.8979 485.442 -93.8979 485.442 -93.919 485.302C-93.7791 485.281 -93.8002 485.141 -93.8002 485.141ZM-27.0364 431.38L-93.1393 485.256L26.4689 573.269L-27.0364 431.38Z" fill="#C4C4C4"/>
<path d="M-29.3025 34.6259C-29.2432 34.5454 -29.1033 34.5244 -29.0228 34.5837C-28.9424 34.6431 -28.8619 34.7025 -28.8408 34.8423L-36.9447 111.508C-37.0041 111.588 -37.0041 111.588 -37.0635 111.669C-37.1229 111.749 -37.2033 111.69 -37.2033 111.69L-65.1109 108.247C-65.1914 108.187 -65.1914 108.187 -65.2719 108.128C-65.3523 108.069 -65.293 107.988 -65.2336 107.908L-29.3025 34.6259ZM-37.5674 111.173L-29.5112 36.0876L-64.8141 107.844L-37.5674 111.173Z" fill="#C4C4C4"/>
<path d="M-1.60201 299.398C-1.60201 299.398 -1.54263 299.318 -1.60201 299.398C-1.48326 299.238 -1.26295 299.276 -1.24186 299.416L31.0894 339.305C31.1698 339.365 31.1316 339.585 31.0722 339.666C31.0128 339.746 30.7925 339.708 30.712 339.648L-1.61921 299.759C-1.72077 299.559 -1.66139 299.479 -1.60201 299.398Z" fill="#C4C4C4"/>
<path d="M-1.60202 299.398C-1.54265 299.318 -1.54266 299.318 -1.46219 299.377C-1.32235 299.356 -1.24188 299.416 -1.24188 299.416L31.0894 339.305C31.1699 339.365 31.1105 339.445 31.1105 339.445C31.0511 339.526 31.0511 339.526 30.9917 339.606L-14.3057 373.54C-14.3651 373.62 -14.5049 373.641 -14.5854 373.582C-14.6658 373.522 -14.7463 373.463 -14.6869 373.382L-1.6614 299.479L-1.60202 299.398ZM30.53 339.39L-1.35675 300.077L-14.1314 372.798L30.53 339.39Z" fill="#C4C4C4"/>
<path d="M-93.6324 329.295L-93.573 329.215L-1.62326 299.258C-1.56388 299.178 -1.48342 299.237 -1.40295 299.297C-1.32249 299.356 -1.30139 299.496 -1.30139 299.496L-14.2676 373.319C-14.3269 373.4 -14.3269 373.4 -14.3863 373.48C-14.4457 373.56 -14.5262 373.501 -14.6066 373.442L-93.5902 329.575C-93.6707 329.515 -93.7512 329.456 -93.6918 329.376L-93.6324 329.295ZM-1.67874 299.839L-92.8106 329.529L-14.6105 372.942L-1.67874 299.839Z" fill="#C4C4C4"/>
<path d="M30.7291 339.288C30.7885 339.208 30.7885 339.208 30.9283 339.187C31.0682 339.166 31.1697 339.365 31.1103 339.445L28.0567 404.551C28.0778 404.691 27.8786 404.792 27.7981 404.733C27.6582 404.754 27.5567 404.555 27.6161 404.474L30.6697 339.369L30.7291 339.288Z" fill="#C4C4C4"/>
<path d="M-14.6488 373.162C-14.6488 373.162 -14.5683 373.221 -14.6488 373.162L30.708 339.148C30.7674 339.068 30.9073 339.047 30.9877 339.106C31.0682 339.165 31.1487 339.225 31.0893 339.305L28.0356 404.411C27.9763 404.491 27.9973 404.631 27.9169 404.572C27.8575 404.652 27.777 404.593 27.6966 404.533L-14.6277 373.302C-14.7081 373.242 -14.7081 373.242 -14.7292 373.103C-14.6277 373.302 -14.7081 373.242 -14.6488 373.162ZM30.6736 339.868L-14.0472 373.357L27.6333 404.114L30.6736 339.868Z" fill="#C4C4C4"/>
<path d="M-14.6488 373.162L-14.5895 373.081C-14.5301 373.001 -14.4496 373.06 -14.3692 373.12L27.955 404.351C28.0355 404.411 28.116 404.47 28.0566 404.551C27.9972 404.631 27.9378 404.712 27.9378 404.712L-26.9176 431.219C-26.977 431.3 -27.0575 431.24 -27.1379 431.181C-27.2184 431.121 -27.2395 430.982 -27.2395 430.982L-14.6488 373.162C-14.6278 373.302 -14.7082 373.242 -14.6488 373.162ZM27.4761 404.495L-14.2044 373.739L-26.5824 430.596L27.4761 404.495Z" fill="#C4C4C4"/>
<path d="M-27.1206 430.821L-27.0612 430.741L27.7943 404.233C27.9341 404.212 28.0739 404.191 28.095 404.331L74.2741 473.454C74.3546 473.513 74.3757 473.653 74.3163 473.733C74.2569 473.814 74.1171 473.835 74.0366 473.775L-27.0784 431.101C-27.1589 431.041 -27.2393 430.982 -27.1799 430.901C-27.1799 430.901 -27.1799 430.901 -27.1206 430.821ZM27.8192 404.873L-26.3792 430.995L73.5116 473.14L27.8192 404.873Z" fill="#C4C4C4"/>
<path d="M25.7259 575.454C26.611 576.107 27.7297 575.938 28.3828 575.053C29.036 574.168 28.8673 573.049 27.9822 572.396C27.0971 571.743 25.9783 571.912 25.3252 572.797C24.7314 573.602 24.9212 574.86 25.7259 575.454Z" fill="#C4C4C4"/>
<path d="M28.4634 575.113C27.8102 575.998 26.611 576.107 25.8064 575.513C25.0018 574.919 24.812 573.661 25.4057 572.856C26.0588 571.971 27.258 571.862 28.0627 572.456C28.8673 573.049 29.0571 574.308 28.4634 575.113ZM29.1875 575.647C30.1375 574.36 29.8634 572.542 28.6564 571.651C27.369 570.701 25.5511 570.975 24.6605 572.182C23.7104 573.469 23.9846 575.287 25.1915 576.178C26.4196 577.208 28.2375 576.934 29.1875 575.647Z" fill="#231F20"/>
<path d="M-0.395171 300.289C0.0204608 299.726 -0.106079 298.887 -0.669329 298.471C-1.23258 298.056 -2.07162 298.182 -2.48725 298.745C-2.90288 299.309 -2.77635 300.148 -2.2131 300.563C-1.64985 300.979 -0.810802 300.852 -0.395171 300.289Z" fill="#C4C4C4"/>
<path d="M-0.39514 300.289C-0.810772 300.852 -1.64982 300.979 -2.21307 300.563C-2.77632 300.148 -2.90285 299.309 -2.48722 298.745C-2.07158 298.182 -1.23255 298.056 -0.669296 298.471C-0.0466695 298.806 0.0204932 299.726 -0.39514 300.289ZM0.409503 300.883C1.18139 299.837 0.970501 298.438 -0.0755347 297.667C-1.12157 296.895 -2.51997 297.106 -3.29186 298.152C-4.06375 299.198 -3.85287 300.596 -2.80683 301.368C-1.84126 302.08 -0.362386 301.929 0.409503 300.883Z" fill="#231F20"/>
<path d="M32.5798 340.654C33.2923 339.688 33.1025 338.429 32.1369 337.717C31.1713 337.004 29.9128 337.194 29.2003 338.16C28.4878 339.125 28.6776 340.384 29.6431 341.096C30.6087 341.809 31.8673 341.619 32.5798 340.654Z" fill="#C4C4C4"/>
<path d="M32.5798 340.654C31.8673 341.619 30.5283 341.75 29.6432 341.096C28.6776 340.384 28.5472 339.045 29.2003 338.16C29.9128 337.194 31.2518 337.064 32.1369 337.717C33.1025 338.429 33.2923 339.688 32.5798 340.654ZM33.3844 341.247C34.3938 339.879 34.0986 337.922 32.8112 336.972C31.4433 335.962 29.4855 336.257 28.5355 337.545C27.5855 338.832 27.8213 340.871 29.1088 341.821C30.4173 342.91 32.375 342.615 33.3844 341.247Z" fill="#231F20"/>
<path d="M95.1802 461.29C96.0114 460.164 95.7794 458.626 94.6529 457.794C93.5264 456.963 91.9882 457.195 91.1569 458.322C90.3257 459.448 90.5576 460.986 91.6841 461.818C92.8106 462.649 94.3489 462.417 95.1802 461.29Z" fill="#C4C4C4"/>
<path d="M95.1801 461.291C94.3488 462.417 92.8106 462.649 91.6841 461.818C90.5576 460.987 90.3256 459.448 91.1569 458.322C91.9881 457.195 93.5264 456.963 94.6529 457.795C95.7794 458.626 96.0113 460.164 95.1801 461.291ZM95.9043 461.825C97.0324 460.296 96.7161 458.199 95.2466 456.99C93.7178 455.862 91.6202 456.178 90.4116 457.648C89.2835 459.176 89.5998 461.274 91.0692 462.483C92.6785 463.67 94.7761 463.354 95.9043 461.825Z" fill="#231F20"/>
<path d="M25.181 402.553C24.0529 404.082 24.3692 406.18 25.8981 407.308C27.4269 408.436 29.5245 408.12 30.6526 406.591C31.7808 405.062 31.4644 402.964 29.9356 401.836C28.4068 400.708 26.3092 401.024 25.181 402.553Z" fill="#C4C4C4"/>
<path d="M30.5721 406.531C29.444 408.06 27.3464 408.376 25.8176 407.248C24.2888 406.12 23.9724 404.022 25.1006 402.494C26.2287 400.965 28.3263 400.649 29.8551 401.777C31.3839 402.905 31.7807 405.062 30.5721 406.531ZM31.3768 407.125C32.8018 405.194 32.4011 402.537 30.47 401.112C28.5388 399.687 25.8819 400.088 24.4568 402.019C23.0318 403.95 23.4325 406.607 25.3637 408.032C27.2143 409.397 29.9518 409.056 31.3768 407.125Z" fill="#231F20"/>
<path d="M75.6245 474.823C76.2777 473.938 76.0285 472.76 75.2239 472.166C74.3388 471.513 73.1606 471.762 72.5669 472.567C71.9138 473.452 72.1629 474.63 72.9676 475.223C73.7722 475.817 75.0308 475.627 75.6245 474.823Z" fill="#C4C4C4"/>
<path d="M75.6246 474.823C74.9714 475.708 73.7723 475.817 72.9676 475.223C72.0825 474.57 71.9732 473.371 72.5669 472.566C73.2201 471.681 74.4193 471.572 75.2239 472.166C76.1684 472.738 76.2777 473.938 75.6246 474.823ZM76.4292 475.416C77.3792 474.129 77.1051 472.311 75.8981 471.42C74.6107 470.47 72.7928 470.745 71.9021 471.952C70.9521 473.239 71.2263 475.057 72.4332 475.948C73.7207 476.898 75.3987 476.645 76.4292 475.416Z" fill="#231F20"/>
<path d="M314.487 61.0852L297.076 141.943L265.002 127.472L264.705 127.874L297.16 142.502C297.24 142.562 297.3 142.481 297.38 142.541C297.44 142.46 297.44 142.46 297.499 142.38L315.14 60.2001L314.487 61.0852Z" fill="#C4C4C4"/>
<path d="M191.812 252.425L208.43 203.294L207.54 204.501L191.41 252.128L191.812 252.425Z" fill="#C4C4C4"/>
<path d="M191.812 252.425L208.43 203.294L207.54 204.501L191.41 252.128L191.812 252.425Z" fill="#C4C4C4"/>
<path d="M193.904 253.969L235.1 219.867C235.159 219.787 235.278 219.626 235.117 219.507L214.805 194.824L214.508 195.227L234.579 219.731L193.502 253.672L193.904 253.969Z" fill="#C4C4C4"/>
<path d="M279.967 318.222L283.654 285.772L300.947 271.937L286.747 323.349L287.149 323.646L301.583 271.412C301.643 271.332 301.621 271.192 301.541 271.132C301.461 271.073 301.321 271.094 301.261 271.175L283.332 285.534C283.332 285.534 283.332 285.534 283.273 285.615L283.214 285.695L279.505 318.005L279.967 318.222Z" fill="#C4C4C4"/>
<path d="M264.705 127.874L296.779 142.345L271.59 159.302L259.4 134.896L259.103 135.298L271.293 159.704C271.374 159.763 271.374 159.763 271.454 159.823C271.535 159.882 271.594 159.802 271.594 159.802L297.359 142.401C297.419 142.32 297.478 142.24 297.478 142.24C297.457 142.1 297.457 142.1 297.377 142.04L265.002 127.472L264.705 127.874Z" fill="#C4C4C4"/>
<path d="M259.043 135.378L271.031 159.386L242.614 157.307L242.257 157.79L271.335 159.984C271.416 160.043 271.475 159.963 271.534 159.882C271.594 159.802 271.573 159.662 271.573 159.662L259.281 135.057L259.043 135.378Z" fill="#C4C4C4"/>
<path d="M242.753 157.286L242.397 157.769L270.674 159.869L220.505 187.1L219.852 187.985L271.615 159.941C271.674 159.861 271.734 159.78 271.713 159.641C271.692 159.501 271.611 159.441 271.471 159.462L242.753 157.286Z" fill="#C4C4C4"/>
<path d="M271.331 159.484L220.505 187.1L219.852 187.985L270.818 160.348L234.736 219.35L214.665 194.845L214.368 195.248L234.6 219.871C234.681 219.93 234.761 219.99 234.761 219.99C234.841 220.049 234.901 219.969 234.96 219.888L271.594 159.802C271.653 159.721 271.632 159.581 271.552 159.522C271.611 159.441 271.471 159.462 271.331 159.484Z" fill="#C4C4C4"/>
<path d="M287.208 323.565L301.663 271.471L338.263 260.946L297.347 331.047L297.749 331.343L339.081 260.68C339.14 260.599 339.119 260.459 339.038 260.4C338.958 260.341 338.877 260.281 338.818 260.362L301.6 271.052L301.541 271.132L301.481 271.213L287.086 323.226L287.208 323.565Z" fill="#C4C4C4"/>
<path d="M375.745 4.00707L332.58 36.9038L331.57 38.2717L375.571 4.74845L358.604 109.424L320.565 53.0178L320.268 53.4201L358.57 110.144C358.651 110.203 358.731 110.263 358.871 110.242C359.011 110.22 359.07 110.14 359.049 110L376.126 4.1641C376.186 4.08363 376.105 4.02427 376.025 3.9649C375.885 3.98599 375.804 3.9266 375.745 4.00707Z" fill="#C4C4C4"/>
<path d="M320.268 53.4197L358.469 109.944L297.635 141.858L315.14 60.1998L314.487 61.0849L296.978 142.244C296.919 142.324 296.999 142.383 297.079 142.443C297.16 142.502 297.3 142.481 297.3 142.481L358.79 110.182C358.85 110.101 358.85 110.101 358.909 110.021C358.969 109.94 358.888 109.881 358.888 109.881L320.484 52.958L320.268 53.4197Z" fill="#C4C4C4"/>
<path d="M358.528 109.864C358.588 109.784 358.588 109.784 358.727 109.763C358.867 109.741 358.867 109.741 358.948 109.801L410.279 172.783C410.36 172.843 410.3 172.923 410.381 172.983C410.321 173.063 410.262 173.144 410.262 173.144L311.941 206.849C311.801 206.871 311.801 206.871 311.721 206.811C311.64 206.752 311.619 206.612 311.679 206.531L358.528 109.864ZM409.72 172.868L358.833 110.462L312.357 206.286L409.72 172.868Z" fill="#C4C4C4"/>
<path d="M297.038 142.163L297.097 142.083L358.588 109.784C358.647 109.703 358.727 109.763 358.808 109.822C358.888 109.881 358.909 110.021 358.85 110.102L312.001 206.769C311.941 206.849 311.882 206.93 311.801 206.87C311.721 206.811 311.64 206.752 311.56 206.692L296.978 142.244C296.978 142.244 296.978 142.244 297.038 142.163ZM358.274 110.546L297.58 142.439L312.035 206.049L358.274 110.546Z" fill="#C4C4C4"/>
<path d="M311.679 206.531L311.738 206.451L410.059 172.745C410.199 172.724 410.279 172.783 410.36 172.843C410.44 172.902 410.461 173.042 410.402 173.122L338.941 260.701C338.881 260.781 338.822 260.862 338.742 260.802C338.661 260.743 338.581 260.684 338.581 260.684L311.721 206.811C311.64 206.752 311.64 206.752 311.679 206.531C311.619 206.612 311.619 206.612 311.679 206.531ZM409.385 173.49L312.161 206.888L338.717 260.163L409.385 173.49Z" fill="#C4C4C4"/>
<path d="M271.272 159.564C271.332 159.484 271.332 159.484 271.272 159.564L297.038 142.164C297.097 142.083 297.177 142.142 297.258 142.202C297.338 142.261 297.419 142.321 297.419 142.321L312.001 206.769C312.022 206.909 311.962 206.989 311.903 207.07C311.844 207.15 311.683 207.032 311.602 206.972L271.255 159.925C271.175 159.865 271.234 159.785 271.153 159.725C271.272 159.564 271.272 159.564 271.272 159.564ZM297.041 142.663L271.793 159.7L311.353 205.794L297.041 142.663Z" fill="#C4C4C4"/>
<path d="M271.272 159.564C271.332 159.484 271.332 159.484 271.471 159.463C271.552 159.522 271.611 159.442 271.692 159.501L312.039 206.549C312.119 206.608 312.06 206.689 312.081 206.828C312.022 206.909 311.962 206.989 311.882 206.93L234.821 219.91C234.681 219.931 234.6 219.871 234.6 219.871C234.52 219.812 234.579 219.732 234.558 219.592L271.272 159.564ZM311.399 206.574L271.496 160.103L235.257 219.486L311.399 206.574Z" fill="#C4C4C4"/>
<path d="M311.679 206.532C311.738 206.451 311.738 206.451 311.878 206.43C312.018 206.409 312.098 206.468 312.119 206.608L338.979 260.481C339.06 260.54 339 260.621 338.941 260.701C338.881 260.782 338.881 260.782 338.822 260.862L301.604 271.552C301.545 271.632 301.464 271.573 301.384 271.514C301.303 271.454 301.282 271.314 301.282 271.314L311.78 206.731C311.619 206.612 311.619 206.612 311.679 206.532ZM338.339 260.506L311.966 207.489L301.66 270.971L338.339 260.506Z" fill="#C4C4C4"/>
<path d="M234.698 219.571C234.757 219.49 234.757 219.49 234.897 219.469L311.958 206.489C312.098 206.468 312.098 206.468 312.179 206.528C312.259 206.587 312.2 206.667 312.221 206.807L283.794 285.751C283.735 285.831 283.675 285.912 283.595 285.852C283.455 285.873 283.374 285.814 283.374 285.814L234.6 219.871C234.659 219.791 234.579 219.732 234.698 219.571C234.638 219.651 234.638 219.651 234.698 219.571ZM311.543 207.052L235.32 219.906L283.489 285.153L311.543 207.052Z" fill="#C4C4C4"/>
<path d="M311.679 206.531C311.738 206.451 311.878 206.43 311.878 206.43C311.958 206.489 312.039 206.549 312.06 206.688L301.562 271.272C301.503 271.352 301.503 271.352 301.443 271.433L283.514 285.793C283.455 285.873 283.315 285.894 283.235 285.835C283.154 285.776 283.133 285.636 283.193 285.555L311.679 206.531C311.619 206.612 311.619 206.612 311.679 206.531ZM301.261 271.174L311.3 209.234L284.108 284.988L301.261 271.174Z" fill="#C4C4C4"/>
<path d="M297.609 331.364L338.427 261.565L331.366 356.523L331.848 356.879L339 260.62C338.979 260.48 338.898 260.421 338.818 260.362C338.737 260.302 338.598 260.323 338.538 260.404L297.266 330.987L297.609 331.364Z" fill="#C4C4C4"/>
<path d="M375.686 4.08758L375.745 4.00712C375.885 3.98603 375.885 3.98604 375.966 4.04541L436.063 67.7799C436.144 67.8392 436.084 67.9197 436.165 67.9791C436.105 68.0595 436.105 68.0596 436.046 68.14L358.791 110.182C358.731 110.263 358.651 110.203 358.57 110.144C358.49 110.085 358.41 110.025 358.469 109.945L375.546 4.10867C375.627 4.16804 375.686 4.08758 375.686 4.08758ZM435.644 67.8431L375.991 4.68523L358.986 109.581L435.644 67.8431Z" fill="#C4C4C4"/>
<path d="M258.461 302.228L283.137 286.136L279.484 317.865L279.886 318.162L283.633 285.632C283.692 285.551 283.612 285.492 283.531 285.432C283.451 285.373 283.311 285.394 283.252 285.475L258.059 301.931L258.461 302.228Z" fill="#C4C4C4"/>
<path d="M232.429 282.77L235.044 220.448L283.031 285.436L237.579 286.57L238.222 287.045L283.535 285.933C283.675 285.912 283.675 285.912 283.734 285.831C283.794 285.751 283.773 285.611 283.692 285.551L235.058 219.588C234.977 219.528 234.897 219.469 234.757 219.49L234.698 219.57L234.638 219.651L232.006 282.333L232.429 282.77Z" fill="#C4C4C4"/>
<path d="M193.904 253.969L234.663 220.291L232.027 282.473L232.51 282.829L235.16 219.787C235.138 219.647 235.138 219.647 235.058 219.588C234.978 219.528 234.838 219.549 234.778 219.63L193.523 253.812L193.904 253.969Z" fill="#C4C4C4"/>
<path d="M238.142 286.986L282.675 285.919L258.14 301.991L258.542 302.288L283.675 285.912C283.735 285.831 283.794 285.751 283.773 285.611C283.752 285.471 283.671 285.412 283.532 285.433L237.579 286.57L238.142 286.986Z" fill="#C4C4C4"/>
<path d="M299.13 143.707C299.902 142.661 299.67 141.123 298.624 140.351C297.577 139.579 296.039 139.811 295.267 140.857C294.495 141.903 294.727 143.441 295.773 144.213C296.82 144.985 298.358 144.753 299.13 143.707Z" fill="#C4C4C4"/>
<path d="M299.129 143.707C298.358 144.753 296.819 144.985 295.773 144.213C294.727 143.441 294.495 141.903 295.267 140.857C296.039 139.811 297.577 139.579 298.623 140.351C299.75 141.182 299.901 142.661 299.129 143.707ZM299.934 144.301C301.003 142.852 300.687 140.755 299.238 139.686C297.79 138.617 295.692 138.934 294.624 140.382C293.555 141.83 293.871 143.928 295.319 144.997C296.768 146.066 298.785 145.69 299.934 144.301Z" fill="#231F20"/>
<path d="M273.927 161.524C274.937 160.156 274.641 158.198 273.273 157.189C271.906 156.179 269.948 156.474 268.938 157.842C267.929 159.21 268.224 161.168 269.592 162.177C271.019 163.106 272.918 162.892 273.927 161.524Z" fill="#C4C4C4"/>
<path d="M273.927 161.524C272.918 162.892 270.96 163.187 269.592 162.177C268.224 161.168 267.929 159.21 268.938 157.842C269.948 156.475 271.906 156.179 273.274 157.189C274.722 158.257 275.017 160.215 273.927 161.524ZM274.732 162.117C276.038 160.347 275.659 157.83 273.888 156.524C272.118 155.218 269.601 155.597 268.295 157.367C266.988 159.138 267.368 161.655 269.138 162.961C270.909 164.267 273.426 163.888 274.732 162.117Z" fill="#231F20"/>
<path d="M313.288 207.719C313.882 206.914 313.654 205.876 312.929 205.342C312.125 204.748 311.087 204.976 310.552 205.7C309.958 206.505 310.186 207.543 310.911 208.077C311.575 208.692 312.694 208.524 313.288 207.719Z" fill="#C4C4C4"/>
<path d="M313.288 207.719C312.694 208.523 311.635 208.612 310.91 208.077C310.106 207.484 310.018 206.424 310.552 205.7C311.146 204.895 312.205 204.807 312.929 205.342C313.653 205.876 313.822 206.995 313.288 207.719ZM313.953 208.334C314.843 207.127 314.59 205.449 313.383 204.558C312.176 203.667 310.498 203.92 309.607 205.127C308.717 206.334 308.97 208.012 310.177 208.903C311.443 209.713 313.121 209.46 313.953 208.334Z" fill="#231F20"/>
<path d="M304.077 273.252C305.146 271.804 304.83 269.706 303.441 268.557C301.993 267.488 299.895 267.805 298.746 269.194C297.677 270.642 297.993 272.74 299.382 273.889C300.852 275.098 302.949 274.781 304.077 273.252Z" fill="#C4C4C4"/>
<path d="M304.077 273.252C303.008 274.701 300.911 275.017 299.382 273.889C297.934 272.82 297.617 270.723 298.746 269.194C299.814 267.745 301.912 267.429 303.441 268.557C304.91 269.766 305.226 271.863 304.077 273.252ZM304.882 273.846C306.307 271.915 305.906 269.258 303.975 267.833C302.044 266.408 299.387 266.809 297.962 268.74C296.537 270.671 296.938 273.328 298.869 274.753C300.719 276.119 303.457 275.777 304.882 273.846Z" fill="#231F20"/>
<path d="M236.307 220.758C236.901 219.953 236.732 218.835 235.927 218.241C235.123 217.647 234.004 217.816 233.41 218.62C232.816 219.425 232.985 220.544 233.79 221.137C234.595 221.731 235.713 221.563 236.307 220.758Z" fill="#C4C4C4"/>
<path d="M236.307 220.758C235.713 221.563 234.595 221.731 233.79 221.137C232.985 220.544 232.817 219.425 233.41 218.62C234.004 217.816 235.123 217.647 235.927 218.241C236.732 218.835 236.841 220.034 236.307 220.758ZM236.972 221.373C237.862 220.166 237.609 218.488 236.402 217.597C235.195 216.706 233.517 216.959 232.627 218.166C231.736 219.373 231.989 221.051 233.196 221.942C234.403 222.833 236.081 222.58 236.972 221.373Z" fill="#231F20"/>
<path d="M281.723 284.347C281.002 285.324 281.209 286.702 282.187 287.423C283.165 288.145 284.542 287.937 285.264 286.959C285.985 285.982 285.777 284.604 284.8 283.883C283.822 283.161 282.445 283.369 281.723 284.347Z" fill="#C4C4C4"/>
<path d="M285.264 286.959C284.551 287.925 283.153 288.136 282.187 287.423C281.222 286.711 281.011 285.312 281.723 284.347C282.436 283.381 283.834 283.17 284.8 283.883C285.765 284.595 285.976 285.994 285.264 286.959ZM286.068 287.553C287.137 286.105 286.842 284.147 285.393 283.078C283.945 282.009 281.987 282.304 280.919 283.753C279.85 285.201 280.145 287.159 281.593 288.228C282.961 289.237 284.919 288.942 286.068 287.553Z" fill="#231F20"/>
</g>
<defs>
<clipPath id="clip0">
<rect width="459.6" height="437.9" fill="white" transform="translate(320 260.007) rotate(126.424)"/>
</clipPath>
</defs>
</svg>
