<svg width="1150" height="822" viewBox="0 0 1150 822" fill="none" xmlns="http://www.w3.org/2000/svg">
<g opacity="0.9">
<g opacity="0.58">
<g opacity="0.58">
<path opacity="0.58" d="M1132.92 446.372L806.816 248.862L824.793 522.503L1132.92 446.372Z" stroke="#CECECE" stroke-miterlimit="10"/>
<path opacity="0.58" d="M905.51 639.214L572.932 365.573L564.483 562.903L905.51 639.214Z" stroke="#CECECE" stroke-miterlimit="10"/>
<path opacity="0.58" d="M969.869 217.44L806.816 744.612L581.382 248.862L969.869 217.44Z" stroke="#CECECE" stroke-miterlimit="10"/>
<path opacity="0.58" d="M761.873 188.712L636.212 650.526L303.814 466.662L761.873 188.712Z" stroke="#CECECE" stroke-miterlimit="10"/>
<path opacity="0.58" d="M474.418 217.44L481.249 437.395L272.354 156.931L474.418 217.44Z" stroke="#CECECE" stroke-miterlimit="10"/>
<path opacity="0.58" d="M708.301 20.6489L885.735 273.641L985.688 112.042L708.301 20.6489Z" stroke="#CECECE" stroke-miterlimit="10"/>
<path opacity="0.58" d="M666.773 2.15479L740.839 385.683L436.306 314.041L666.773 2.15479Z" stroke="#CECECE" stroke-miterlimit="10"/>
<path opacity="0.58" d="M282.601 358.75L532.844 403.639L425.16 614.615L282.601 358.75Z" stroke="#CECECE" stroke-miterlimit="10"/>
<path opacity="0.58" d="M386.869 235.396L290.331 437.395L2.87647 147.235L386.869 235.396Z" stroke="#CECECE" stroke-miterlimit="10"/>
<path opacity="0.58" d="M477.654 150.467L436.306 260.174L373.745 20.6489L477.654 150.467Z" stroke="#CECECE" stroke-miterlimit="10"/>
<path opacity="0.58" d="M373.746 20.6489L315.14 329.662L191.457 127.843L373.746 20.6489Z" stroke="#CECECE" stroke-miterlimit="10"/>
<path opacity="0.58" d="M1085.46 248.862L984.79 408.127L978.138 260.174L1085.46 248.862Z" stroke="#CECECE" stroke-miterlimit="10"/>
<path opacity="0.58" d="M824.793 522.503L740.839 385.683L572.933 365.573L532.843 403.638L436.306 314.041L386.869 235.396L436.306 260.174L666.773 2.15479L708.301 20.6489L761.873 188.712L806.816 248.863L885.735 273.641L969.869 217.44L978.138 260.174L824.793 522.503Z" stroke="#CECECE" stroke-miterlimit="10"/>
<path opacity="0.58" d="M824.793 522.504L984.79 408.127L1132.92 446.373" stroke="#CECECE" stroke-miterlimit="10"/>
<path opacity="0.58" d="M474.418 217.441L581.382 248.863L666.773 182.787V2.15479" stroke="#CECECE" stroke-miterlimit="10"/>
<path opacity="0.58" d="M985.688 112.042L761.873 188.712" stroke="#CECECE" stroke-miterlimit="10"/>
<path opacity="0.58" d="M740.839 385.683L806.816 248.862" stroke="#CECECE" stroke-miterlimit="10"/>
<path opacity="0.58" d="M824.793 522.504L671.268 446.372L564.483 562.903L532.843 403.639L481.249 437.395L457.339 551.591L441.16 383.349L315.14 329.662L282.601 358.75L457.339 551.591L564.483 562.903L636.212 650.526L905.51 639.214L824.793 522.504ZM824.793 522.504L742.277 602.764" stroke="#CECECE" stroke-miterlimit="10"/>
<path opacity="0.58" d="M581.382 248.862L477.654 323.737" stroke="#CECECE" stroke-miterlimit="10"/>
<path opacity="0.58" d="M272.354 156.931L236.22 200.742L282.601 358.75L2.87652 147.235L191.457 127.843L272.354 156.931ZM272.354 156.931L373.746 20.6489" stroke="#CECECE" stroke-miterlimit="10"/>
<path opacity="0.58" d="M236.22 200.742L93.3014 238.269" stroke="#CECECE" stroke-miterlimit="10"/>
<path opacity="0.58" d="M636.212 650.526L468.126 788.783L457.34 551.591L636.212 650.526Z" stroke="#CECECE" stroke-miterlimit="10"/>
<path opacity="0.58" d="M373.746 542.973L247.905 551.591L373.746 670.097V542.973Z" stroke="#CECECE" stroke-miterlimit="10"/>
<path opacity="0.58" d="M303.814 466.662L247.905 551.591L360.083 497.725" stroke="#CECECE" stroke-miterlimit="10"/>
<path opacity="0.58" d="M282.601 358.75L194.873 481.027L290.331 437.395L282.601 358.75Z" stroke="#CECECE" stroke-miterlimit="10"/>
</g>
<path opacity="0.58" d="M666.773 182.787L501.743 225.521" stroke="#CECECE" stroke-miterlimit="10"/>
</g>
<path d="M985.688 414.412C982.214 414.412 979.396 411.598 979.396 408.127C979.396 404.656 982.214 401.843 985.688 401.843C989.163 401.843 991.98 404.656 991.98 408.127C991.98 411.598 989.163 414.412 985.688 414.412Z" fill="#C1C1C1"/>
<path d="M978.138 266.459C974.663 266.459 971.846 263.645 971.846 260.175C971.846 256.704 974.663 253.89 978.138 253.89C981.613 253.89 984.43 256.704 984.43 260.175C984.43 263.645 981.613 266.459 978.138 266.459Z" fill="#C1C1C1"/>
<path opacity="0.58" d="M978.138 290.699C961.26 290.699 947.577 277.033 947.577 260.175C947.577 243.317 961.26 229.65 978.138 229.65C995.017 229.65 1008.7 243.317 1008.7 260.175C1008.7 277.033 995.017 290.699 978.138 290.699Z" stroke="#CECECE" stroke-miterlimit="10"/>
<path d="M969.869 221.032C967.883 221.032 966.273 219.424 966.273 217.441C966.273 215.457 967.883 213.85 969.869 213.85C971.854 213.85 973.464 215.457 973.464 217.441C973.464 219.424 971.854 221.032 969.869 221.032Z" fill="#C1C1C1"/>
<path d="M1085.46 255.147C1081.99 255.147 1079.17 252.333 1079.17 248.863C1079.17 245.392 1081.99 242.578 1085.46 242.578C1088.94 242.578 1091.75 245.392 1091.75 248.863C1091.75 252.333 1088.94 255.147 1085.46 255.147Z" fill="#C1C1C1"/>
<path d="M885.735 279.925C882.26 279.925 879.443 277.112 879.443 273.641C879.443 270.17 882.26 267.356 885.735 267.356C889.21 267.356 892.027 270.17 892.027 273.641C892.027 277.112 889.21 279.925 885.735 279.925Z" fill="#C1C1C1"/>
<path d="M801.962 248.862C801.962 251.556 804.119 253.89 806.995 253.89C809.692 253.89 812.029 251.735 812.029 248.862C812.029 246.169 809.872 243.835 806.995 243.835C804.119 244.015 801.962 246.169 801.962 248.862Z" fill="#C1C1C1"/>
<path d="M740.84 388.376C739.35 388.376 738.143 387.171 738.143 385.683C738.143 384.196 739.35 382.99 740.84 382.99C742.329 382.99 743.536 384.196 743.536 385.683C743.536 387.171 742.329 388.376 740.84 388.376Z" fill="#C1C1C1"/>
<path d="M817.962 522.503C817.962 526.274 821.018 529.326 824.793 529.326C828.568 529.326 831.624 526.274 831.624 522.503C831.624 518.733 828.568 515.68 824.793 515.68C821.018 515.68 817.962 518.733 817.962 522.503Z" fill="#C1C1C1"/>
<path d="M905.51 642.984C903.425 642.984 901.735 641.296 901.735 639.214C901.735 637.131 903.425 635.443 905.51 635.443C907.595 635.443 909.286 637.131 909.286 639.214C909.286 641.296 907.595 642.984 905.51 642.984Z" fill="#C1C1C1"/>
<path d="M742.278 608.151C739.299 608.151 736.885 605.739 736.885 602.764C736.885 599.789 739.299 597.377 742.278 597.377C745.256 597.377 747.671 599.789 747.671 602.764C747.671 605.739 745.256 608.151 742.278 608.151Z" fill="#C1C1C1"/>
<path d="M654.549 586.604C652.563 586.604 650.954 584.996 650.954 583.013C650.954 581.03 652.563 579.422 654.549 579.422C656.535 579.422 658.145 581.03 658.145 583.013C658.145 584.996 656.535 586.604 654.549 586.604Z" fill="#C1C1C1"/>
<path d="M555.315 562.903C555.315 567.931 559.45 572.061 564.483 572.061C569.517 572.061 573.652 567.931 573.652 562.903C573.652 557.876 569.517 553.746 564.483 553.746C559.45 553.746 555.315 557.876 555.315 562.903Z" fill="#C1C1C1"/>
<path d="M630.999 650.525C630.999 653.398 633.336 655.733 636.212 655.733C639.089 655.733 641.426 653.398 641.426 650.525C641.426 647.653 639.089 645.318 636.212 645.318C633.336 645.318 630.999 647.653 630.999 650.525Z" fill="#C1C1C1"/>
<path d="M636.212 666.685C627.277 666.685 620.033 659.45 620.033 650.526C620.033 641.601 627.277 634.366 636.212 634.366C645.148 634.366 652.392 641.601 652.392 650.526C652.392 659.45 645.148 666.685 636.212 666.685Z" stroke="#C1C1C1" stroke-miterlimit="10"/>
<path d="M803.4 744.612C803.4 746.587 805.018 748.024 806.816 748.024C808.793 748.024 810.231 746.408 810.231 744.612C810.231 742.637 808.614 741.201 806.816 741.201C805.018 741.201 803.4 742.817 803.4 744.612Z" fill="#C1C1C1"/>
<path d="M468.126 794.349C465.048 794.349 462.553 791.857 462.553 788.782C462.553 785.708 465.048 783.216 468.126 783.216C471.203 783.216 473.698 785.708 473.698 788.782C473.698 791.857 471.203 794.349 468.126 794.349Z" fill="#C1C1C1"/>
<path d="M452.306 551.591C452.306 554.284 454.463 556.619 457.339 556.619C460.036 556.619 462.373 554.464 462.373 551.591C462.373 548.898 460.216 546.563 457.339 546.563C454.463 546.563 452.306 548.718 452.306 551.591Z" fill="#C1C1C1"/>
<path d="M529.608 403.639C529.608 405.434 531.046 407.05 533.023 407.05C534.821 407.05 536.439 405.614 536.439 403.639C536.439 401.843 535.001 400.227 533.023 400.227C531.046 400.407 529.608 401.843 529.608 403.639Z" fill="#C1C1C1"/>
<path d="M567.719 365.573C567.719 368.446 570.056 370.78 572.933 370.78C575.809 370.78 578.146 368.446 578.146 365.573C578.146 362.7 575.809 360.366 572.933 360.366C570.056 360.366 567.719 362.7 567.719 365.573Z" fill="#C1C1C1"/>
<path d="M430.014 312.245C430.014 315.118 432.351 317.452 435.228 317.452C438.104 317.452 440.441 315.118 440.441 312.245C440.441 309.372 438.104 307.038 435.228 307.038C432.351 307.038 430.014 309.372 430.014 312.245Z" fill="#C1C1C1"/>
<path d="M671.268 454.452C666.8 454.452 663.178 450.835 663.178 446.372C663.178 441.91 666.8 438.292 671.268 438.292C675.736 438.292 679.357 441.91 679.357 446.372C679.357 450.835 675.736 454.452 671.268 454.452Z" fill="#C1C1C1"/>
<path d="M761.873 200.742C755.221 200.742 749.828 195.356 749.828 188.712C749.828 182.068 755.221 176.682 761.873 176.682C768.525 176.682 773.917 182.068 773.917 188.712C773.917 195.356 768.525 200.742 761.873 200.742Z" fill="#C1C1C1"/>
<path d="M1132.92 455.35C1127.96 455.35 1123.93 451.33 1123.93 446.372C1123.93 441.414 1127.96 437.395 1132.92 437.395C1137.89 437.395 1141.91 441.414 1141.91 446.372C1141.91 451.33 1137.89 455.35 1132.92 455.35Z" fill="#C1C1C1"/>
<path d="M1132.92 462.532C1123.99 462.532 1116.74 455.297 1116.74 446.372C1116.74 437.447 1123.99 430.212 1132.92 430.212C1141.86 430.212 1149.1 437.447 1149.1 446.372C1149.1 455.297 1141.86 462.532 1132.92 462.532Z" stroke="#C1C1C1" stroke-miterlimit="10"/>
<path d="M671.268 463.789C661.637 463.789 653.83 455.991 653.83 446.372C653.83 436.753 661.637 428.956 671.268 428.956C680.898 428.956 688.706 436.753 688.706 446.372C688.706 455.991 680.898 463.789 671.268 463.789Z" stroke="#C1C1C1" stroke-miterlimit="10"/>
<path opacity="0.58" d="M621.942 458.145C615.508 430.929 632.381 403.658 659.629 397.232C686.877 390.805 714.181 407.658 720.616 434.873C727.05 462.088 710.176 489.36 682.928 495.786C655.68 502.212 628.376 485.36 621.942 458.145Z" stroke="#CECECE" stroke-miterlimit="10"/>
<path d="M436.306 277.591C426.675 277.591 418.868 269.794 418.868 260.175C418.868 250.556 426.675 242.758 436.306 242.758C445.937 242.758 453.744 250.556 453.744 260.175C453.744 269.794 445.937 277.591 436.306 277.591Z" stroke="#C1C1C1" stroke-miterlimit="10"/>
<path d="M194.873 498.443C185.242 498.443 177.435 490.645 177.435 481.026C177.435 471.407 185.242 463.609 194.873 463.609C204.503 463.609 212.311 471.407 212.311 481.026C212.311 490.645 204.503 498.443 194.873 498.443Z" stroke="#C1C1C1" stroke-miterlimit="10"/>
<path d="M272.354 168.602C265.901 168.602 260.669 163.377 260.669 156.931C260.669 150.485 265.901 145.26 272.354 145.26C278.808 145.26 284.039 150.485 284.039 156.931C284.039 163.377 278.808 168.602 272.354 168.602Z" stroke="#C1C1C1" stroke-miterlimit="10"/>
<path d="M806.816 261.432C799.866 261.432 794.232 255.804 794.232 248.863C794.232 241.921 799.866 236.294 806.816 236.294C813.766 236.294 819.4 241.921 819.4 248.863C819.4 255.804 813.766 261.432 806.816 261.432Z" stroke="#C1C1C1" stroke-miterlimit="10"/>
<path d="M436.306 268.255C431.838 268.255 428.216 264.637 428.216 260.175C428.216 255.712 431.838 252.095 436.306 252.095C440.774 252.095 444.396 255.712 444.396 260.175C444.396 264.637 440.774 268.255 436.306 268.255Z" fill="#C1C1C1"/>
<path opacity="0.21" d="M441.16 413.873C424.282 413.873 410.599 400.207 410.599 383.349C410.599 366.491 424.282 352.825 441.16 352.825C458.038 352.825 471.721 366.491 471.721 383.349C471.721 400.207 458.038 413.873 441.16 413.873Z" fill="#C1C1C1"/>
<path d="M430.014 383.349C430.014 389.454 434.868 394.302 440.98 394.302C447.092 394.302 451.946 389.454 451.946 383.349C451.946 377.244 447.092 372.396 440.98 372.396C435.048 372.396 430.014 377.424 430.014 383.349Z" fill="#C1C1C1"/>
<path d="M373.745 549.796C369.973 549.796 366.914 546.741 366.914 542.972C366.914 539.204 369.973 536.149 373.745 536.149C377.518 536.149 380.577 539.204 380.577 542.972C380.577 546.741 377.518 549.796 373.745 549.796Z" fill="#C1C1C1"/>
<path d="M236.22 551.591C236.22 558.055 241.433 563.262 247.905 563.262C254.377 563.262 259.59 558.055 259.59 551.591C259.59 545.127 254.377 539.92 247.905 539.92C241.433 539.92 236.22 545.127 236.22 551.591Z" fill="#C1C1C1"/>
<path d="M188.401 481.026C188.401 484.617 191.277 487.67 195.052 487.67C198.648 487.67 201.704 484.797 201.704 481.026C201.704 477.435 198.827 474.383 195.052 474.383C191.277 474.562 188.401 477.435 188.401 481.026Z" fill="#C1C1C1"/>
<path d="M282.601 437.395C282.601 441.704 286.017 445.115 290.331 445.115C294.646 445.115 298.062 441.704 298.062 437.395C298.062 433.085 294.646 429.674 290.331 429.674C286.017 429.674 282.601 433.085 282.601 437.395Z" fill="#C1C1C1"/>
<path d="M477.654 154.956C475.172 154.956 473.159 152.946 473.159 150.467C473.159 147.988 475.172 145.978 477.654 145.978C480.136 145.978 482.148 147.988 482.148 150.467C482.148 152.946 480.136 154.956 477.654 154.956Z" fill="#C1C1C1"/>
<path opacity="0.05" d="M761.873 243.476C731.591 243.476 707.042 218.957 707.042 188.712C707.042 158.466 731.591 133.948 761.873 133.948C792.155 133.948 816.703 158.466 816.703 188.712C816.703 218.957 792.155 243.476 761.873 243.476Z" fill="#C1C1C1"/>
<path opacity="0.05" d="M789.383 607.922C742.142 588.378 719.709 534.284 739.277 487.1C758.845 439.917 813.005 417.511 860.245 437.055C907.486 456.6 929.919 510.694 910.351 557.877C890.783 605.061 836.623 627.467 789.383 607.922Z" fill="#C1C1C1"/>
<path opacity="0.05" d="M236.22 243.835C212.392 243.835 193.075 224.542 193.075 200.742C193.075 176.942 212.392 157.649 236.22 157.649C260.048 157.649 279.365 176.942 279.365 200.742C279.365 224.542 260.048 243.835 236.22 243.835Z" fill="#C1C1C1"/>
<path opacity="0.58" d="M824.793 562.903C802.454 562.903 784.344 544.815 784.344 522.503C784.344 500.191 802.454 482.104 824.793 482.104C847.132 482.104 865.241 500.191 865.241 522.503C865.241 544.815 847.132 562.903 824.793 562.903Z" stroke="#CECECE" stroke-miterlimit="10"/>
<path d="M660.841 182.787C660.841 186.019 663.537 188.712 666.773 188.712C670.009 188.712 672.706 186.019 672.706 182.787C672.706 179.555 670.009 176.861 666.773 176.861C663.537 176.861 660.841 179.555 660.841 182.787Z" fill="#C1C1C1"/>
<path d="M574.55 248.863C574.55 252.633 577.607 255.686 581.382 255.686C585.157 255.686 588.213 252.633 588.213 248.863C588.213 245.092 585.157 242.04 581.382 242.04C577.607 242.04 574.55 245.092 574.55 248.863Z" fill="#C1C1C1"/>
<path d="M975.621 112.042C975.621 117.608 980.116 122.097 985.689 122.097C991.262 122.097 995.756 117.608 995.756 112.042C995.756 106.476 991.262 101.987 985.689 101.987C980.116 101.987 975.621 106.476 975.621 112.042Z" fill="#C1C1C1"/>
<path d="M430.553 614.615C430.553 617.667 428.037 620.002 425.16 620.002C422.104 620.002 419.767 617.488 419.767 614.615C419.767 611.563 422.284 609.228 425.16 609.228C428.037 609.049 430.553 611.563 430.553 614.615Z" fill="#C1C1C1"/>
<path d="M378.419 235.396C378.419 240.065 382.195 243.835 386.869 243.835C391.543 243.835 395.318 240.065 395.318 235.396C395.318 230.728 391.543 226.957 386.869 226.957C382.195 226.957 378.419 230.728 378.419 235.396Z" fill="#C1C1C1"/>
<path d="M272.354 162.856C269.078 162.856 266.422 160.203 266.422 156.931C266.422 153.658 269.078 151.005 272.354 151.005C275.631 151.005 278.287 153.658 278.287 156.931C278.287 160.203 275.631 162.856 272.354 162.856Z" fill="#C1C1C1"/>
<path d="M236.22 209.72C231.256 209.72 227.231 205.7 227.231 200.742C227.231 195.784 231.256 191.764 236.22 191.764C241.184 191.764 245.208 195.784 245.208 200.742C245.208 205.7 241.184 209.72 236.22 209.72Z" fill="#C1C1C1"/>
<path d="M278.287 358.75C278.287 361.084 280.264 363.059 282.601 363.059C284.938 363.059 286.916 361.084 286.916 358.75C286.916 356.416 284.938 354.44 282.601 354.44C280.264 354.44 278.287 356.416 278.287 358.75Z" fill="#C1C1C1"/>
</g>
<circle cx="597" cy="383" r="294" fill="url(#paint0_radial)"/>
<defs>
<radialGradient id="paint0_radial" cx="0" cy="0" r="1" gradientUnits="userSpaceOnUse" gradientTransform="translate(597 383) rotate(90) scale(294)">
<stop offset="0.369792" stop-color="#FBFBFB"/>
<stop offset="1" stop-color="#FBFBFB" stop-opacity="0"/>
</radialGradient>
</defs>
</svg>
