<svg width="320" height="816" viewBox="0 0 320 816" fill="none" xmlns="http://www.w3.org/2000/svg">
<g opacity="0.58">
<g opacity="0.58">
<path opacity="0.58" d="M502.951 660.199L159.203 377.367L150.47 581.325L502.951 660.199Z" stroke="#CECECE" strokeOpacity="0.6" strokeMiterlimit="10"/>
<path opacity="0.58" d="M569.471 224.259L400.941 769.136L167.936 256.736L569.471 224.259Z" stroke="#CECECE" strokeOpacity="0.6" strokeMiterlimit="10"/>
<path opacity="0.58" d="M354.489 194.565L224.608 671.89L-118.954 481.851L354.489 194.565Z" stroke="#CECECE" strokeOpacity="0.6" strokeMiterlimit="10"/>
<path opacity="0.58" d="M57.3792 224.258L64.4399 451.6L-151.471 161.716L57.3792 224.258Z" stroke="#CECECE" strokeOpacity="0.6" strokeMiterlimit="10"/>
<path opacity="0.58" d="M299.118 20.8579L482.512 282.347L585.822 115.321L299.118 20.8579Z" stroke="#CECECE" strokeOpacity="0.6" strokeMiterlimit="10"/>
<path opacity="0.58" d="M256.196 1.74218L332.749 398.152L17.988 324.103L256.196 1.74218Z" stroke="#CECECE" strokeOpacity="0.6" strokeMiterlimit="10"/>
<path opacity="0.58" d="M-140.879 370.313L117.768 416.71L6.46799 634.772L-140.879 370.313Z" stroke="#CECECE" strokeOpacity="0.6" strokeMiterlimit="10"/>
<path opacity="0.58" d="M60.7241 155.036L17.9879 268.428L-46.6739 20.8579L60.7241 155.036Z" stroke="#CECECE" strokeOpacity="0.6" strokeMiterlimit="10"/>
<path opacity="0.58" d="M419.523 539.567L332.75 398.152L159.203 377.366L117.768 416.71L17.9881 324.103L-33.1096 242.817L17.9881 268.428L256.196 1.74216L299.118 20.8574L354.489 194.565L400.942 256.736L482.512 282.347L569.471 224.259L578.019 268.428L419.523 539.567Z" stroke="#CECECE" strokeOpacity="0.6" strokeMiterlimit="10"/>
<path opacity="0.58" d="M57.3792 224.259L167.936 256.736L256.196 188.441L256.196 1.74219" stroke="#CECECE" strokeOpacity="0.6" strokeMiterlimit="10"/>
<path opacity="0.58" d="M419.523 539.569L260.841 460.881L150.47 581.325L117.768 416.711L64.4404 451.601L39.7277 569.634L23.0049 395.74L-107.248 340.25L-140.879 370.315L39.7277 569.634L150.47 581.325L224.608 671.891L502.951 660.199L419.523 539.569ZM419.523 539.569L334.236 622.525" stroke="#CECECE" strokeOpacity="0.6" strokeMiterlimit="10"/>
<path opacity="0.58" d="M167.936 256.736L60.7241 334.125" stroke="#CECECE" strokeOpacity="0.6" strokeMiterlimit="10"/>
<path opacity="0.58" d="M224.609 671.889L50.8766 814.789L39.7281 569.632L224.609 671.889Z" stroke="#CECECE" strokeOpacity="0.6" strokeMiterlimit="10"/>
</g>
<path opacity="0.58" d="M256.196 188.441L85.6223 232.611" stroke="#CECECE" strokeOpacity="0.6" strokeMiterlimit="10"/>
</g>
<path d="M297 344C294.791 344 293 345.791 293 348C293 350.209 294.791 352 297 352C299.209 352 301 350.209 301 348C301 345.791 299.209 344 297 344Z" fill="#C1C1C1"/>
<path d="M297 341C293.134 341 290 344.134 290 348C290 351.866 293.134 355 297 355C300.866 355 304 351.866 304 348C304 344.134 300.866 341 297 341Z" stroke="#C1C1C1" stroke-miterlimit="10"/>
<path d="M25.0002 327.8C23.2329 327.8 21.8002 329.233 21.8002 331C21.8002 332.768 23.2329 334.2 25.0002 334.2C26.7675 334.2 28.2002 332.768 28.2002 331C28.2002 329.233 26.7675 327.8 25.0002 327.8Z" fill="#C1C1C1"/>
<path d="M25.0002 319C18.3728 319 13.0002 324.373 13.0002 331C13.0002 337.627 18.3728 343 25.0002 343C31.6277 343 37.0002 337.627 37.0002 331C37.0002 324.373 31.6277 319 25.0002 319Z" stroke="#C1C1C1" strokeOpacity="0.6" strokeMiterlimit="10"/>
<path d="M299 696.867C297.822 696.867 296.867 697.822 296.867 699C296.867 700.178 297.822 701.133 299 701.133C300.178 701.133 301.133 700.178 301.133 699C301.133 697.822 300.178 696.867 299 696.867Z" fill="#C1C1C1"/>
<path d="M299 691C294.582 691 291 694.582 291 699C291 703.418 294.582 707 299 707C303.418 707 307 703.418 307 699C307 694.582 303.418 691 299 691Z" stroke="#C1C1C1" strokeOpacity="0.6" strokeMiterlimit="10"/>
<path d="M15.2001 590.999C13.4328 590.999 12.0001 592.432 12.0001 594.199C12.0001 595.967 13.4328 597.399 15.2001 597.399C16.9675 597.399 18.4001 595.967 18.4001 594.199C18.4001 592.432 16.9675 590.999 15.2001 590.999Z" fill="#C1C1C1"/>
<path d="M306.2 93.995C304.433 93.995 303 95.4277 303 97.195C303 98.9623 304.433 100.395 306.2 100.395C307.967 100.395 309.4 98.9623 309.4 97.195C309.4 95.4277 307.967 93.995 306.2 93.995Z" fill="#C1C1C1"/>
</svg>
