<svg width="12" height="15" viewBox="0 0 12 15" fill="none" xmlns="http://www.w3.org/2000/svg">
<path d="M7.41113 0.552734L11.6611 4.80273V13.3027C11.6611 13.679 11.5173 14 11.2295 14.2656C10.9639 14.5534 10.6429 14.6973 10.2666 14.6973H1.7334C1.3571 14.6973 1.02507 14.5534 0.737305 14.2656C0.47168 14 0.338867 13.679 0.338867 13.3027V1.94727C0.338867 1.57096 0.47168 1.25 0.737305 0.984375C1.02507 0.696615 1.36816 0.552734 1.7666 0.552734H7.41113ZM8.83887 11.875V10.4473H3.16113V11.875H8.83887ZM8.83887 9.05273V7.625H3.16113V9.05273H8.83887ZM6.71387 5.5H10.5986L6.71387 1.61523V5.5Z" fill="#FEFDFB"/>
</svg>
